<svg id="group-2" xmlns="http://www.w3.org/2000/svg" width="258.946" height="33.809" viewBox="0 0 258.946 33.809">
  <g id="XMLID_62_">
    <path id="facebook-circle-outline-icon_13_" d="M36.028,27.143H34.1v3.151h1.928v9.231h3.707V30.257h2.6l.26-3.114H39.735V25.363c0-.741.148-1.038.853-1.038h2V21.1H40.031c-2.743,0-4,1.223-4,3.522Z" transform="translate(-21.459 -13.278)" fill="#fff"/>
    <path id="facebook-circle-outline-icon_12_" d="M16.868,1.275A15.553,15.553,0,0,1,28.026,5.909,15.781,15.781,0,1,1,1.075,17.068,15.821,15.821,0,0,1,16.868,1.275m0-1.075A16.868,16.868,0,1,0,33.735,17.068,16.881,16.881,0,0,0,16.868.2Z" transform="translate(0 -0.126)" fill="#fff"/>
    <path id="facebook-circle-outline-icon_11_" d="M139.068,1.275a15.553,15.553,0,0,1,11.159,4.634A15.793,15.793,0,0,1,139.068,32.86a15.553,15.553,0,0,1-11.159-4.634A15.793,15.793,0,0,1,139.068,1.275m0-1.075a16.868,16.868,0,1,0,16.868,16.868A16.881,16.881,0,0,0,139.068.2Z" transform="translate(-76.898 -0.126)" fill="#fff"/>
    <path id="facebook-circle-outline-icon_10_" d="M259.868,1.075a15.553,15.553,0,0,1,11.159,4.634,15.793,15.793,0,1,1-22.317,0,15.553,15.553,0,0,1,11.159-4.634m0-1.075a16.868,16.868,0,1,0,16.868,16.868A16.881,16.881,0,0,0,259.868,0Z" transform="translate(-152.916)" fill="#fff"/>
    <path id="facebook-circle-outline-icon_9_" d="M381.368,1.075a15.553,15.553,0,0,1,11.159,4.634A15.793,15.793,0,0,1,381.368,32.66a15.553,15.553,0,0,1-11.159-4.634,15.752,15.752,0,0,1,0-22.317,15.553,15.553,0,0,1,11.159-4.634m0-1.075a16.868,16.868,0,1,0,16.868,16.868A16.881,16.881,0,0,0,381.368,0Z" transform="translate(-229.374)" fill="#fff"/>
    <path id="facebook-circle-outline-icon_8_" d="M502.868,1.075a15.553,15.553,0,0,1,11.159,4.634,15.793,15.793,0,1,1-22.317,0,15.553,15.553,0,0,1,11.159-4.634m0-1.075a16.868,16.868,0,1,0,16.868,16.868A16.881,16.881,0,0,0,502.868,0Z" transform="translate(-305.832)" fill="#fff"/>
    <path id="facebook-circle-outline-icon_7_" d="M624.368,1.075a15.553,15.553,0,0,1,11.159,4.634,15.752,15.752,0,1,1-11.159-4.634m0-1.075a16.868,16.868,0,1,0,16.868,16.868A16.881,16.881,0,0,0,624.368,0Z" transform="translate(-382.29)" fill="#fff"/>
  </g>
  <path id="XMLID_59_" d="M405.042,33.887a3.4,3.4,0,0,0-.556-1.446,1.815,1.815,0,0,0-1.372-.593c-1.928-.148-4.819-.148-4.819-.148h0s-2.892,0-4.819.148a1.972,1.972,0,0,0-1.372.593,3.4,3.4,0,0,0-.556,1.446,20.809,20.809,0,0,0-.148,2.336v1.112a21.7,21.7,0,0,0,.148,2.336,3.151,3.151,0,0,0,.556,1.409,2.5,2.5,0,0,0,1.52.63c1.112.111,4.671.148,4.671.148s2.892,0,4.819-.148a1.972,1.972,0,0,0,1.372-.593,3.311,3.311,0,0,0,.556-1.409,20.8,20.8,0,0,0,.148-2.336V36.3A22.149,22.149,0,0,0,405.042,33.887Zm-4.449,2.743-3.707,2V34.592l1.668.927Z" transform="translate(-246.301 -19.948)" fill="#fff"/>
  <g id="XMLID_56_" transform="translate(188.734 11.302)">
    <path id="XMLID_58_" d="M544.459,39.191h-.334V37.522c0-.074-.074-.222-.111-.222h-1.26v1.854H540.9v.334c0,.334.037.667.037,1,.334,0,.667.037,1,.037h.853v1.854h1.335V40.525h1.854V39.154C545.46,39.191,544.978,39.191,544.459,39.191Z" transform="translate(-529.114 -34.774)" fill="#fff"/>
    <path id="XMLID_57_" d="M519.151,34.754h-4.486c-.074,0-.185.074-.185.111V36.9h2.854a3.5,3.5,0,0,1-.111.334A2.786,2.786,0,0,1,514,38.943,3.122,3.122,0,0,1,511.44,35.2a2.236,2.236,0,0,1,.222-.7,3.162,3.162,0,0,1,3.485-1.779,2.9,2.9,0,0,1,1.335.7l1.557-1.557a.512.512,0,0,0-.148-.111,5.126,5.126,0,0,0-4.337-1.186,5.32,5.32,0,0,0,1.52,10.528,4.8,4.8,0,0,0,3.077-1.446,5.409,5.409,0,0,0,1.335-4.634C519.558,34.791,519.447,34.754,519.151,34.754Z" transform="translate(-509.107 -30.486)" fill="#fff"/>
  </g>
  <g id="XMLID_52_" transform="translate(237.036 10.714)">
    <path id="XMLID_55_" d="M639.4,40.591v5.338h2.521V38.7H639.4Z" transform="translate(-639.4 -35.067)" fill="#fff"/>
    <circle id="XMLID_54_" cx="1.26" cy="1.26" r="1.26" fill="#fff"/>
    <path id="XMLID_53_" d="M656.984,40.824a2.715,2.715,0,0,0-4.745-1.26H652.2V38.6h-2v7.229h2.113v-3.6c0-.964.185-1.854,1.335-1.854s1.26,1.075,1.26,1.928v3.522H657.1V41.862h0C657.058,41.492,657.021,41.158,656.984,40.824Z" transform="translate(-646.196 -35.004)" fill="#fff"/>
  </g>
  <path id="XMLID_51_" d="M284.2,33.712a4.388,4.388,0,0,1-1.409.371,2.4,2.4,0,0,0,1.075-1.335,5.64,5.64,0,0,1-1.557.593,2.375,2.375,0,0,0-1.779-.741,2.437,2.437,0,0,0-2.447,2.41,2.863,2.863,0,0,0,.074.556,6.969,6.969,0,0,1-5-2.484,2.3,2.3,0,0,0-.334,1.186,2.493,2.493,0,0,0,1.075,2,2.265,2.265,0,0,1-1.112-.3v.037a3.157,3.157,0,0,0,.148.853,2.417,2.417,0,0,0,1.779,1.483,3.652,3.652,0,0,1-.63.074,1.8,1.8,0,0,1-.445-.037,2.442,2.442,0,0,0,2.261,1.668,4.987,4.987,0,0,1-3,1.038,3.189,3.189,0,0,1-.593-.037,7,7,0,0,0,3.707,1.075,6.787,6.787,0,0,0,6.747-5.375,6.385,6.385,0,0,0,.148-1.446v-.3A3.935,3.935,0,0,0,284.2,33.712Z" transform="translate(-171.354 -20.515)" fill="#fff"/>
  <path id="XMLID_48_" d="M154.737,25.372c2.039,0,2.261,0,3.077.037a4.054,4.054,0,0,1,1.409.26,2.771,2.771,0,0,1,.89.556,2.254,2.254,0,0,1,.556.89,4.054,4.054,0,0,1,.26,1.409c.037.816.037,1.038.037,3.077s0,2.261-.037,3.077a4.054,4.054,0,0,1-.26,1.409,2.525,2.525,0,0,1-1.446,1.446,4.054,4.054,0,0,1-1.409.259c-.816.037-1.038.037-3.077.037s-2.261,0-3.077-.037a4.054,4.054,0,0,1-1.409-.259,2.772,2.772,0,0,1-.89-.556,2.254,2.254,0,0,1-.556-.89,4.054,4.054,0,0,1-.26-1.409c-.037-.816-.037-1.038-.037-3.077s0-2.261.037-3.077a4.054,4.054,0,0,1,.26-1.409,2.771,2.771,0,0,1,.556-.89,2.254,2.254,0,0,1,.89-.556,4.054,4.054,0,0,1,1.409-.26c.816-.037,1.075-.037,3.077-.037m0-1.372c-2.076,0-2.336,0-3.151.037a4.8,4.8,0,0,0-1.854.371,3.258,3.258,0,0,0-1.335.89,4.012,4.012,0,0,0-.89,1.335,5.61,5.61,0,0,0-.371,1.854c-.037.816-.037,1.075-.037,3.151s0,2.336.037,3.151a4.8,4.8,0,0,0,.371,1.854,3.258,3.258,0,0,0,.89,1.335,4.012,4.012,0,0,0,1.335.89,5.611,5.611,0,0,0,1.854.371c.816.037,1.075.037,3.151.037s2.336,0,3.151-.037a4.8,4.8,0,0,0,1.854-.371,3.868,3.868,0,0,0,2.224-2.224,5.611,5.611,0,0,0,.371-1.854c.037-.816.037-1.075.037-3.151s0-2.336-.037-3.151a4.8,4.8,0,0,0-.371-1.854,3.258,3.258,0,0,0-.89-1.335,4.012,4.012,0,0,0-1.335-.89,5.611,5.611,0,0,0-1.854-.371C157.072,24,156.813,24,154.737,24Z" transform="translate(-92.568 -15.103)" fill="#fff"/>
  <path id="XMLID_44_" d="M161.093,34a3.893,3.893,0,1,0,3.893,3.893h0A3.845,3.845,0,0,0,161.093,34Zm0,6.45a2.521,2.521,0,1,1,2.521-2.521A2.523,2.523,0,0,1,161.093,40.45Z" transform="translate(-98.923 -21.396)" fill="#fff"/>
  <circle id="XMLID_43_" cx="0.927" cy="0.927" r="0.927" transform="translate(65.32 11.529)" fill="#fff"/>
</svg>
