<svg xmlns="http://www.w3.org/2000/svg" width="35" height="35" viewBox="0 0 35 35">
  <g id="Group_6519" data-name="Group 6519" transform="translate(-93 -291)">
    <g id="Ellipse_32" data-name="Ellipse 32" transform="translate(93 291)" fill="#fff" stroke="#eb930f" stroke-width="1">
      <circle cx="17.5" cy="17.5" r="17.5" stroke="none"/>
      <circle cx="17.5" cy="17.5" r="17" fill="none"/>
    </g>
    <g id="Group_6520" data-name="Group 6520" transform="translate(89 385)">
      <path id="Path_21971" data-name="Path 21971" d="M16.945-83.969a4.8,4.8,0,0,0-3.493,1.509,5.3,5.3,0,0,0-.008,7.265l7.7,8.078a.52.52,0,0,0,.727,0q3.852-4.034,7.7-8.07a5.293,5.293,0,0,0,0-7.265,4.8,4.8,0,0,0-6.993,0l-1.063,1.1-1.063-1.11a4.747,4.747,0,0,0-3.5-1.509Zm0,.985a3.838,3.838,0,0,1,2.782,1.22l1.422,1.494a.52.52,0,0,0,.727,0l1.414-1.486a3.772,3.772,0,0,1,5.555,0,4.294,4.294,0,0,1,0,5.881q-3.668,3.841-7.337,7.687l-7.337-7.695a4.3,4.3,0,0,1,0-5.881,3.821,3.821,0,0,1,2.774-1.22Z" transform="translate(0)" fill="#eb930f"/>
    </g>
  </g>
</svg>
