<svg xmlns="http://www.w3.org/2000/svg" width="110.168" height="42.488" viewBox="0 0 110.168 42.488">
  <g id="Group_6502" data-name="Group 6502" transform="translate(-628 -13.64)">
    <g id="Group_6477" data-name="Group 6477">
      <g id="Group_6474" data-name="Group 6474" transform="translate(716.923 13.64)">
        <path id="Path_21823" data-name="Path 21823" d="M67.686,24.264h1.546v1.546H67.686Zm-3.02-3.02v7.585h4.565v1.51H63.157V21.244H60.1v9.094h-1.51V21.244H51.007v12.15h3.02v-9.13h1.51v9.13H72.251V21.244ZM64.666,0V7.585h-1.51V4.529H60.1V7.585h-1.51V4.529H55.536V7.585h-1.51V4.529h-3.02v10.64H69.232v4.565h3.02V12.15H54.027V10.6H67.686V0Zm4.565,10.6h3.02V0h-3.02Z" transform="translate(-51.007)" fill="#fff"/>
        <rect id="Rectangle_8504" data-name="Rectangle 8504" width="3.02" height="3.02" transform="translate(0)" fill="#fff"/>
        <rect id="Rectangle_8505" data-name="Rectangle 8505" width="3.056" height="3.02" transform="translate(4.529)" fill="#fff"/>
        <rect id="Rectangle_8506" data-name="Rectangle 8506" width="3.056" height="3.02" transform="translate(9.094)" fill="#fff"/>
        <rect id="Rectangle_8507" data-name="Rectangle 8507" width="3.02" height="3.055" transform="translate(0 16.679)" fill="#fff"/>
        <rect id="Rectangle_8508" data-name="Rectangle 8508" width="3.056" height="3.055" transform="translate(4.529 16.679)" fill="#fff"/>
        <rect id="Rectangle_8509" data-name="Rectangle 8509" width="3.056" height="3.055" transform="translate(9.094 16.679)" fill="#fff"/>
        <rect id="Rectangle_8510" data-name="Rectangle 8510" width="3.02" height="3.055" transform="translate(13.659 16.679)" fill="#fff"/>
        <rect id="Rectangle_8511" data-name="Rectangle 8511" width="3.056" height="3.02" transform="translate(9.094 34.903)" fill="#fff"/>
        <rect id="Rectangle_8512" data-name="Rectangle 8512" width="3.056" height="3.02" transform="translate(9.094 39.469)" fill="#fff"/>
      </g>
      <g id="Group_6475" data-name="Group 6475" transform="translate(628 33.455)">
        <path id="Path_21824" data-name="Path 21824" d="M9.295,1392.926H8.2c-1.313,0-2.155-.387-2.509-1.179a2.472,2.472,0,0,1-2.475,1.179c-2.138,0-3.216-1.28-3.216-3.856,0-2.492,1.078-3.738,3.216-3.738H6.634v4.5c0,1.145.556,1.718,1.65,1.718h1.01Zm-4.26-6.3H3.317a1.467,1.467,0,0,0-1.381.656,3.588,3.588,0,0,0-.337,1.785,3.707,3.707,0,0,0,.337,1.8,1.446,1.446,0,0,0,1.381.674,1.446,1.446,0,0,0,1.381-.674,3.707,3.707,0,0,0,.337-1.8Zm-1.465-3.671a.884.884,0,0,1-1.768,0,.884.884,0,0,1,1.768,0m2.256,0a.892.892,0,0,1-.875.876.877.877,0,0,1-.859-.876.862.862,0,0,1,.859-.859.877.877,0,0,1,.875.859" transform="translate(0 -1380.129)" fill="#fff"/>
        <path id="Path_21825" data-name="Path 21825" d="M48.132,1390.283a2.432,2.432,0,0,1-.892,2.122,3.734,3.734,0,0,1-2.223.522h-4.8v-1.414h4.6a4.308,4.308,0,0,0,1.179-.1.982.982,0,0,0,.539-1.01H44.259a2.838,2.838,0,0,1-2.24-.724,2.962,2.962,0,0,1-.539-1.97c0-1.633,1.246-2.694,3.267-2.694a3.6,3.6,0,0,1,2.593.859,2.407,2.407,0,0,1,.791,1.836Zm-3.738-7.325a.9.9,0,0,1-.892.876.877.877,0,0,1-.859-.876.862.862,0,0,1,.859-.859.881.881,0,0,1,.892.859m2.138,4.8c0-.893-.589-1.33-1.785-1.33-1.128,0-1.684.438-1.684,1.33,0,.589.084.943.253,1.094a2.412,2.412,0,0,0,1.263.2h1.953Zm.118-4.8a.867.867,0,1,1-1.735,0,.867.867,0,0,1,1.735,0" transform="translate(-31.328 -1380.129)" fill="#fff"/>
        <path id="Path_21826" data-name="Path 21826" d="M86.347,1392.807H84.562a2.031,2.031,0,0,1-2.223-2.172v-8.184l1.6-.505v8.638a.72.72,0,0,0,.825.809h1.583Z" transform="translate(-64.138 -1380.01)" fill="#fff"/>
        <path id="Path_21827" data-name="Path 21827" d="M110.886,1393.876H98.257v-1.414h2.071v-8.655l1.6-.488v5.759a5.267,5.267,0,0,1,4.58-2.711,3.945,3.945,0,0,1,3.7,1.936,6.361,6.361,0,0,1,.741,3.25c0,.253-.017.64-.034,1.162s-.034.909-.034,1.162m-1.5-1.414c.017-.253.034-.505.034-.758a5.585,5.585,0,0,0-.657-2.761,2.73,2.73,0,0,0-2.155-1.128,3.971,3.971,0,0,0-3.166,1.633,6.972,6.972,0,0,0-1.583,3.015Z" transform="translate(-76.537 -1381.078)" fill="#fff"/>
        <path id="Path_21828" data-name="Path 21828" d="M168.572,1404.672a4.1,4.1,0,0,1-.892,2.745,3.332,3.332,0,0,1-2.728,1.145,3.8,3.8,0,0,1-1.97-.438l-.707-1.549a5.468,5.468,0,0,0,2.677.589,1.981,1.981,0,0,0,2.021-2,3.223,3.223,0,0,1-1.6.4,2.941,2.941,0,0,1-2.593-1.213,4.383,4.383,0,0,1-.69-2.559,4.442,4.442,0,0,1,.69-2.577,2.969,2.969,0,0,1,2.593-1.195,2.849,2.849,0,0,1,2.711,1.38,6.429,6.429,0,0,1,.556,2.98c0,.32,0,.741-.017,1.229q-.051.808-.051,1.061m-1.515-2.879c0-1.6-.556-2.391-1.684-2.391s-1.7.792-1.7,2.391c0,1.583.573,2.374,1.7,2.374s1.684-.791,1.684-2.374" transform="translate(-126.259 -1392.531)" fill="#fff"/>
        <path id="Path_21829" data-name="Path 21829" d="M218.912,1392.926h-1.094c-1.314,0-2.155-.387-2.509-1.179a2.472,2.472,0,0,1-2.475,1.179c-2.139,0-3.216-1.28-3.216-3.856,0-2.492,1.078-3.738,3.216-3.738h3.418v4.5c0,1.145.556,1.718,1.65,1.718h1.01v1.38Zm-4.26-6.3h-1.718a1.467,1.467,0,0,0-1.381.656,3.588,3.588,0,0,0-.337,1.785,3.707,3.707,0,0,0,.337,1.8,1.752,1.752,0,0,0,2.761,0,3.7,3.7,0,0,0,.337-1.8Zm-1.465-3.671a.884.884,0,0,1-1.768,0,.884.884,0,0,1,1.768,0m2.256,0a.892.892,0,0,1-.875.876.877.877,0,0,1-.859-.876.862.862,0,0,1,.859-.859.877.877,0,0,1,.875.859" transform="translate(-163.281 -1380.129)" fill="#fff"/>
        <path id="Path_21830" data-name="Path 21830" d="M257.749,1390.283a2.432,2.432,0,0,1-.892,2.122,3.733,3.733,0,0,1-2.223.522h-4.8v-1.414h4.6a4.306,4.306,0,0,0,1.178-.1.982.982,0,0,0,.539-1.01h-2.273a2.838,2.838,0,0,1-2.24-.724,2.962,2.962,0,0,1-.539-1.97c0-1.633,1.246-2.694,3.267-2.694a3.6,3.6,0,0,1,2.593.859,2.407,2.407,0,0,1,.792,1.836v2.576Zm-1.6-2.526c0-.893-.589-1.33-1.785-1.33-1.128,0-1.684.438-1.684,1.33,0,.589.084.943.252,1.094a2.412,2.412,0,0,0,1.263.2h1.953Zm-.909-4.8a.876.876,0,1,1-1.751,0,.876.876,0,0,1,1.751,0" transform="translate(-194.609 -1380.129)" fill="#fff"/>
        <path id="Path_21831" data-name="Path 21831" d="M295.963,1392.807h-1.785a2.031,2.031,0,0,1-2.223-2.172v-8.184l1.6-.505v8.638a.72.72,0,0,0,.825.809h1.583Z" transform="translate(-227.419 -1380.01)" fill="#fff"/>
        <path id="Path_21832" data-name="Path 21832" d="M317.543,1392.926h-3.654a5.087,5.087,0,0,1-.993-.1,4.724,4.724,0,0,1-.994.1H308.18v-1.38h2.476a3.633,3.633,0,0,1-1.044-2.392,4.218,4.218,0,0,1,.657-2.61,3.041,3.041,0,0,1,2.627-1.212,3,3,0,0,1,2.627,1.212,4.342,4.342,0,0,1,.69,2.61,3.764,3.764,0,0,1-1.078,2.392h2.408Zm-4.951-9.969a.884.884,0,0,1-1.768,0,.884.884,0,0,1,1.768,0m.3,3.789a1.85,1.85,0,0,0-1.751,2.072,3.133,3.133,0,0,0,.421,1.616,2.469,2.469,0,0,0,1.33,1.128,2.356,2.356,0,0,0,1.33-1.128,3.143,3.143,0,0,0,.438-1.616,1.833,1.833,0,0,0-1.768-2.072m1.953-3.789a.876.876,0,1,1-1.751,0,.876.876,0,0,1,1.751,0" transform="translate(-240.057 -1380.129)" fill="#fff"/>
        <path id="Path_21833" data-name="Path 21833" d="M353.087,1383a2.867,2.867,0,0,1-.859,2.138,3.185,3.185,0,0,1-2.307.842h-1.3V1384.6h1.212a1.5,1.5,0,0,0,1.667-1.718v-4.025l1.583-.472V1383Zm-1.936-6.989a.876.876,0,1,1-1.751,0,.876.876,0,0,1,1.751,0m1.128-1.953a.842.842,0,0,1-.859.859.866.866,0,0,1-.876-.859.891.891,0,0,1,.876-.875.866.866,0,0,1,.859.875m1.145,1.953a.891.891,0,0,1-.875.876.866.866,0,0,1-.859-.876.851.851,0,0,1,.859-.859.877.877,0,0,1,.875.859" transform="translate(-271.562 -1373.186)" fill="#fff"/>
      </g>
      <g id="Group_6476" data-name="Group 6476" transform="translate(653.578 14.666)">
        <path id="Path_21834" data-name="Path 21834" d="M396.005,1392.926h-1.094c-1.313,0-2.155-.387-2.509-1.179a2.471,2.471,0,0,1-2.475,1.179c-2.139,0-3.217-1.28-3.217-3.856,0-2.492,1.078-3.738,3.217-3.738h3.418v4.5c0,1.145.556,1.718,1.65,1.718h1.01Zm-4.26-6.3h-1.718a1.467,1.467,0,0,0-1.38.656,3.583,3.583,0,0,0-.337,1.785,3.7,3.7,0,0,0,.337,1.8,1.752,1.752,0,0,0,2.762,0,3.71,3.71,0,0,0,.336-1.8Zm-1.465-3.671a.884.884,0,0,1-1.768,0,.885.885,0,0,1,1.768,0m2.256,0a.892.892,0,0,1-.876.876.877.877,0,0,1-.859-.876.862.862,0,0,1,.859-.859.877.877,0,0,1,.876.859" transform="translate(-386.71 -1380.129)" fill="#fff"/>
        <path id="Path_21835" data-name="Path 21835" d="M433.879,1404.318h-1.01a3.108,3.108,0,0,1-2.34-.892,3.177,3.177,0,0,1-2.392.892h-1.212v-1.38h1.111a1.5,1.5,0,0,0,1.684-1.718V1397.2l1.583-.471v4.547a1.474,1.474,0,0,0,1.667,1.667h.909Zm-3.6,2.358a.891.891,0,0,1-.875.875.866.866,0,0,1-.859-.875.852.852,0,0,1,.859-.859.877.877,0,0,1,.875.859m2.256,0a.891.891,0,0,1-.875.875.877.877,0,0,1-.859-.875.862.862,0,0,1,.859-.859.877.877,0,0,1,.875.859" transform="translate(-418.036 -1391.521)" fill="#fff"/>
        <path id="Path_21836" data-name="Path 21836" d="M464.471,1390.283a2.432,2.432,0,0,1-.893,2.122,3.732,3.732,0,0,1-2.223.522h-4.8v-1.414h4.6a4.31,4.31,0,0,0,1.179-.1.982.982,0,0,0,.539-1.01H460.6a2.838,2.838,0,0,1-2.24-.724,2.963,2.963,0,0,1-.539-1.97c0-1.633,1.246-2.694,3.267-2.694a3.6,3.6,0,0,1,2.593.859,2.407,2.407,0,0,1,.792,1.836Zm-3.738-7.325a.9.9,0,0,1-.893.876.877.877,0,0,1-.859-.876.862.862,0,0,1,.859-.859.881.881,0,0,1,.893.859m2.139,4.8c0-.893-.59-1.33-1.785-1.33-1.128,0-1.684.438-1.684,1.33,0,.589.084.943.253,1.094a2.41,2.41,0,0,0,1.263.2h1.954Zm.117-4.8a.867.867,0,1,1-1.734,0,.867.867,0,0,1,1.734,0" transform="translate(-441.117 -1380.129)" fill="#fff"/>
        <path id="Path_21837" data-name="Path 21837" d="M501.766,1404.319h-2.391a3.5,3.5,0,0,1-3.772,3.233,3.33,3.33,0,0,1-1.8-.454l-.757-1.583a5.155,5.155,0,0,0,2.559.64,2.072,2.072,0,0,0,2.189-2.29V1397.2l1.6-.471v6.18h2.375Z" transform="translate(-469.538 -1391.522)" fill="#fff"/>
        <path id="Path_21838" data-name="Path 21838" d="M546.128,1385.984H530.821v-1.414h1.987v-4.26l1.6-.455v4.715h3.334V1379.6l1.6-.471v5.439h3.368v-5.709l1.6-.471v6.18h1.819Zm-7.931-9.969a.892.892,0,0,1-.876.876.885.885,0,0,1,0-1.768.9.9,0,0,1,.876.892m1.145-1.953a.875.875,0,1,1-.875-.875.889.889,0,0,1,.875.875m1.128,1.953a.892.892,0,0,1-.875.876.884.884,0,0,1,0-1.768.9.9,0,0,1,.875.892" transform="translate(-498.965 -1373.186)" fill="#fff"/>
        <path id="Path_21839" data-name="Path 21839" d="M602.7,1389.945a2.9,2.9,0,0,1-.859,2.139,3.186,3.186,0,0,1-2.307.841h-1.078v-1.414h.994c1.094,0,1.65-.573,1.65-1.718v-7.224l1.6-.472Z" transform="translate(-551.654 -1380.128)" fill="#fff"/>
        <path id="Path_21840" data-name="Path 21840" d="M625.653,1392.807h-1.6v-10.356l1.6-.505Z" transform="translate(-571.589 -1380.01)" fill="#fff"/>
      </g>
    </g>
  </g>
</svg>
