<svg xmlns="http://www.w3.org/2000/svg" width="9.467" height="9.467" viewBox="0 0 9.467 9.467">
  <path id="iconmonstr_time_3_icon" data-name="iconmonstr time 3 icon" d="M54.734,50a4.734,4.734,0,1,0,4.734,4.734A4.734,4.734,0,0,0,54.734,50Zm0,8.433a3.7,3.7,0,1,1,3.7-3.7A3.7,3.7,0,0,1,54.734,58.433Zm2.914-3.475a.082.082,0,0,1,.068.081v0a.082.082,0,0,1-.067.081c-.852.159-2.872.491-3.093.491a.574.574,0,0,1-.574-.574c0-.226.34-2.405.5-3.288a.074.074,0,0,1,.073-.061h0a.08.08,0,0,1,.079.067l.435,2.755Z" transform="translate(-50 -50)" fill="#f8a62b"/>
</svg>
