<svg id="group" xmlns="http://www.w3.org/2000/svg" width="32.432" height="32.432" viewBox="0 0 32.432 32.432">
  <circle id="XMLID_14_" cx="16.216" cy="16.216" r="16.216" fill="#43bdef"/>
  <path id="XMLID_13_" d="M728.307,43.358a4.851,4.851,0,0,1-1.448.376,2.434,2.434,0,0,0,1.1-1.361,5.329,5.329,0,0,1-1.593.608,2.534,2.534,0,0,0-1.853-.782,2.5,2.5,0,0,0-2.519,2.49,3.928,3.928,0,0,0,.058.579,7.3,7.3,0,0,1-5.212-2.606,2.589,2.589,0,0,0-.347,1.245,2.4,2.4,0,0,0,1.129,2.056,2.139,2.139,0,0,1-1.129-.319v.029a2.36,2.36,0,0,0,.174.9,2.56,2.56,0,0,0,1.853,1.535,2.468,2.468,0,0,1-.666.087,2.25,2.25,0,0,1-.463-.058,2.534,2.534,0,0,0,2.346,1.737,5.1,5.1,0,0,1-3.127,1.071,4.277,4.277,0,0,1-.608-.029,7.337,7.337,0,0,0,3.88,1.129,7.018,7.018,0,0,0,7.008-5.56,6.676,6.676,0,0,0,.174-1.506v-.319A5.927,5.927,0,0,0,728.307,43.358Z" transform="translate(-705.923 -29.98)" fill="#fff"/>
</svg>
