<svg id="group" xmlns="http://www.w3.org/2000/svg" width="32.432" height="32.432" viewBox="0 0 32.432 32.432">
  <circle id="XMLID_10_" cx="16.216" cy="16.216" r="16.216" fill="#23b180"/>
  <g id="group-2" data-name="group" transform="translate(6.631 5.936)">
    <path id="path" d="M212.4,29.621a9.434,9.434,0,0,0-18.851-.174v.405a9.215,9.215,0,0,0,1.361,4.836L193.2,39.7l5.212-1.651a9.307,9.307,0,0,0,4.546,1.158,9.4,9.4,0,0,0,9.44-9.353Zm-9.44,8.079a8.081,8.081,0,0,1-4.373-1.3l-3.04.956.985-2.925a7.755,7.755,0,0,1-1.506-4.6,6.3,6.3,0,0,1,.029-.753,7.942,7.942,0,0,1,15.81.174,4.276,4.276,0,0,1,.029.608A7.891,7.891,0,0,1,202.958,37.7Z" transform="translate(-193.2 -20.5)" fill="#fff"/>
    <path id="XMLID_1_" d="M219.919,44.168c-.232-.116-1.361-.666-1.593-.753-.2-.087-.376-.116-.521.116s-.608.753-.724.9a.353.353,0,0,1-.492.058,6.066,6.066,0,0,1-3.127-2.722c-.145-.232,0-.347.087-.463a5.045,5.045,0,0,0,.347-.405c.029-.029.058-.087.087-.116.058-.087.087-.174.145-.261a.4.4,0,0,0-.029-.405c-.058-.116-.521-1.245-.724-1.708s-.376-.376-.521-.376-.29-.029-.434-.029a.834.834,0,0,0-.608.29A2.6,2.6,0,0,0,211,40.2a3.645,3.645,0,0,0,.116.782,5.285,5.285,0,0,0,.811,1.593,9.534,9.534,0,0,0,3.938,3.475c2.346.927,2.346.608,2.78.579a2.279,2.279,0,0,0,1.564-1.1,1.87,1.87,0,0,0,.145-1.1C220.324,44.342,220.15,44.284,219.919,44.168Z" transform="translate(-205.846 -32.933)" fill="#fff"/>
  </g>
</svg>
