<svg xmlns="http://www.w3.org/2000/svg" width="33.735" height="33.735" viewBox="0 0 33.735 33.735">
  <g id="Group_6576" data-name="Group 6576" transform="translate(-554 -1457.074)">
    <path id="facebook-circle-outline-icon_13_" d="M36.028,27.143H34.1v3.151h1.928v9.231h3.707V30.257h2.6l.26-3.114H39.735V25.363c0-.741.148-1.038.853-1.038h2V21.1H40.031c-2.743,0-4,1.223-4,3.522Z" transform="translate(532.541 1443.722)" fill="#fff"/>
    <path id="facebook-circle-outline-icon_12_" d="M16.868,1.275A15.553,15.553,0,0,1,28.026,5.909,15.781,15.781,0,1,1,1.075,17.068,15.821,15.821,0,0,1,16.868,1.275m0-1.075A16.868,16.868,0,1,0,33.735,17.068,16.881,16.881,0,0,0,16.868.2Z" transform="translate(554 1456.874)" fill="#fff"/>
  </g>
</svg>
