<svg xmlns="http://www.w3.org/2000/svg" width="33.735" height="33.735" viewBox="0 0 33.735 33.735">
  <g id="Group_6580" data-name="Group 6580" transform="translate(-734.168 -1457)">
    <path id="facebook-circle-outline-icon_8_" d="M502.868,1.075a15.553,15.553,0,0,1,11.159,4.634,15.793,15.793,0,1,1-22.317,0,15.553,15.553,0,0,1,11.159-4.634m0-1.075a16.868,16.868,0,1,0,16.868,16.868A16.881,16.881,0,0,0,502.868,0Z" transform="translate(248.168 1457)" fill="#fff"/>
    <g id="XMLID_56_" transform="translate(742.734 1468.302)">
      <path id="XMLID_58_" d="M544.459,39.191h-.334V37.522c0-.074-.074-.222-.111-.222h-1.26v1.854H540.9v.334c0,.334.037.667.037,1,.334,0,.667.037,1,.037h.853v1.854h1.335V40.525h1.854V39.154C545.46,39.191,544.978,39.191,544.459,39.191Z" transform="translate(-529.114 -34.774)" fill="#fff"/>
      <path id="XMLID_57_" d="M519.151,34.754h-4.486c-.074,0-.185.074-.185.111V36.9h2.854a3.5,3.5,0,0,1-.111.334A2.786,2.786,0,0,1,514,38.943,3.122,3.122,0,0,1,511.44,35.2a2.236,2.236,0,0,1,.222-.7,3.162,3.162,0,0,1,3.485-1.779,2.9,2.9,0,0,1,1.335.7l1.557-1.557a.512.512,0,0,0-.148-.111,5.126,5.126,0,0,0-4.337-1.186,5.32,5.32,0,0,0,1.52,10.528,4.8,4.8,0,0,0,3.077-1.446,5.409,5.409,0,0,0,1.335-4.634C519.558,34.791,519.447,34.754,519.151,34.754Z" transform="translate(-509.107 -30.486)" fill="#fff"/>
    </g>
  </g>
</svg>
