<svg xmlns="http://www.w3.org/2000/svg" width="12.771" height="11.426" viewBox="0 0 12.771 11.426">
  <g id="Group_6520" data-name="Group 6520" transform="translate(-12.006 83.969)">
    <path id="Path_21971" data-name="Path 21971" d="M15.326-83.969a3.229,3.229,0,0,0-2.348,1.014,3.56,3.56,0,0,0-.005,4.883l5.173,5.43a.349.349,0,0,0,.488,0q2.589-2.711,5.173-5.424a3.558,3.558,0,0,0,0-4.883,3.227,3.227,0,0,0-4.7,0l-.714.741-.714-.746a3.191,3.191,0,0,0-2.353-1.014Zm0,.662a2.58,2.58,0,0,1,1.87.82l.956,1a.349.349,0,0,0,.488,0l.951-1a2.536,2.536,0,0,1,3.734,0,2.886,2.886,0,0,1,0,3.953l-4.931,5.167-4.931-5.172a2.887,2.887,0,0,1,0-3.953,2.568,2.568,0,0,1,1.864-.82Z" transform="translate(0)" fill="#eb930f"/>
  </g>
</svg>
