<svg xmlns="http://www.w3.org/2000/svg" width="23.141" height="12.939" viewBox="0 0 23.141 12.939">
  <g id="Group_6567" data-name="Group 6567" transform="translate(-954.276 -416.061)">
    <g id="Group_6563" data-name="Group 6563" transform="translate(942.27 500.03)">
      <path id="Path_21971" data-name="Path 21971" d="M15.765-83.969a3.656,3.656,0,0,0-2.658,1.149,4.031,4.031,0,0,0-.006,5.529l5.858,6.148a.4.4,0,0,0,.553,0q2.932-3.07,5.858-6.142a4.029,4.029,0,0,0,0-5.529,3.654,3.654,0,0,0-5.323,0l-.809.839-.809-.845a3.613,3.613,0,0,0-2.664-1.149Z" transform="translate(0 0)" fill="#fff"/>
    </g>
    <path id="iconmonstr-google-plus-5-icon" d="M302.417,170.321v1.2h-2.4v2.4h-1.2v-2.4h-2.4v-1.2h2.4v-2.4h1.2v2.4Z" transform="translate(675 252)" fill="#fff"/>
  </g>
</svg>
