<svg xmlns="http://www.w3.org/2000/svg" width="33.735" height="33.735" viewBox="0 0 33.735 33.735">
  <g id="Group_6577" data-name="Group 6577" transform="translate(-599.301 -1457.074)">
    <path id="facebook-circle-outline-icon_11_" d="M139.068,1.275a15.553,15.553,0,0,1,11.159,4.634A15.793,15.793,0,0,1,139.068,32.86a15.553,15.553,0,0,1-11.159-4.634A15.793,15.793,0,0,1,139.068,1.275m0-1.075a16.868,16.868,0,1,0,16.868,16.868A16.881,16.881,0,0,0,139.068.2Z" transform="translate(477.101 1456.874)" fill="#fff"/>
    <path id="XMLID_48_" d="M154.737,25.372c2.039,0,2.261,0,3.077.037a4.054,4.054,0,0,1,1.409.26,2.771,2.771,0,0,1,.89.556,2.254,2.254,0,0,1,.556.89,4.054,4.054,0,0,1,.26,1.409c.037.816.037,1.038.037,3.077s0,2.261-.037,3.077a4.054,4.054,0,0,1-.26,1.409,2.525,2.525,0,0,1-1.446,1.446,4.054,4.054,0,0,1-1.409.259c-.816.037-1.038.037-3.077.037s-2.261,0-3.077-.037a4.054,4.054,0,0,1-1.409-.259,2.772,2.772,0,0,1-.89-.556,2.254,2.254,0,0,1-.556-.89,4.054,4.054,0,0,1-.26-1.409c-.037-.816-.037-1.038-.037-3.077s0-2.261.037-3.077a4.054,4.054,0,0,1,.26-1.409,2.771,2.771,0,0,1,.556-.89,2.254,2.254,0,0,1,.89-.556,4.054,4.054,0,0,1,1.409-.26c.816-.037,1.075-.037,3.077-.037m0-1.372c-2.076,0-2.336,0-3.151.037a4.8,4.8,0,0,0-1.854.371,3.258,3.258,0,0,0-1.335.89,4.012,4.012,0,0,0-.89,1.335,5.61,5.61,0,0,0-.371,1.854c-.037.816-.037,1.075-.037,3.151s0,2.336.037,3.151a4.8,4.8,0,0,0,.371,1.854,3.258,3.258,0,0,0,.89,1.335,4.012,4.012,0,0,0,1.335.89,5.611,5.611,0,0,0,1.854.371c.816.037,1.075.037,3.151.037s2.336,0,3.151-.037a4.8,4.8,0,0,0,1.854-.371,3.868,3.868,0,0,0,2.224-2.224,5.611,5.611,0,0,0,.371-1.854c.037-.816.037-1.075.037-3.151s0-2.336-.037-3.151a4.8,4.8,0,0,0-.371-1.854,3.258,3.258,0,0,0-.89-1.335,4.012,4.012,0,0,0-1.335-.89,5.611,5.611,0,0,0-1.854-.371C157.072,24,156.813,24,154.737,24Z" transform="translate(461.432 1441.897)" fill="#fff"/>
    <path id="XMLID_44_" d="M161.093,34a3.893,3.893,0,1,0,3.893,3.893h0A3.845,3.845,0,0,0,161.093,34Zm0,6.45a2.521,2.521,0,1,1,2.521-2.521A2.523,2.523,0,0,1,161.093,40.45Z" transform="translate(455.076 1435.604)" fill="#fff"/>
    <circle id="XMLID_43_" cx="0.927" cy="0.927" r="0.927" transform="translate(619.32 1468.529)" fill="#fff"/>
  </g>
</svg>
