<svg xmlns="http://www.w3.org/2000/svg" width="33.735" height="33.735" viewBox="0 0 33.735 33.735">
  <g id="Group_6581" data-name="Group 6581" transform="translate(-779.21 -1457)">
    <path id="facebook-circle-outline-icon_7_" d="M624.368,1.075a15.553,15.553,0,0,1,11.159,4.634,15.752,15.752,0,1,1-11.159-4.634m0-1.075a16.868,16.868,0,1,0,16.868,16.868A16.881,16.881,0,0,0,624.368,0Z" transform="translate(171.71 1457)" fill="#fff"/>
    <g id="XMLID_52_" transform="translate(791.036 1467.714)">
      <path id="XMLID_55_" d="M639.4,40.591v5.338h2.521V38.7H639.4Z" transform="translate(-639.4 -35.067)" fill="#fff"/>
      <circle id="XMLID_54_" cx="1.26" cy="1.26" r="1.26" fill="#fff"/>
      <path id="XMLID_53_" d="M656.984,40.824a2.715,2.715,0,0,0-4.745-1.26H652.2V38.6h-2v7.229h2.113v-3.6c0-.964.185-1.854,1.335-1.854s1.26,1.075,1.26,1.928v3.522H657.1V41.862h0C657.058,41.492,657.021,41.158,656.984,40.824Z" transform="translate(-646.196 -35.004)" fill="#fff"/>
    </g>
  </g>
</svg>
