<svg xmlns="http://www.w3.org/2000/svg" width="33.735" height="33.735" viewBox="0 0 33.735 33.735">
  <g id="Group_6578" data-name="Group 6578" transform="translate(-644.084 -1457)">
    <path id="facebook-circle-outline-icon_10_" d="M259.868,1.075a15.553,15.553,0,0,1,11.159,4.634,15.793,15.793,0,1,1-22.317,0,15.553,15.553,0,0,1,11.159-4.634m0-1.075a16.868,16.868,0,1,0,16.868,16.868A16.881,16.881,0,0,0,259.868,0Z" transform="translate(401.084 1457)" fill="#fff"/>
    <path id="XMLID_51_" d="M284.2,33.712a4.388,4.388,0,0,1-1.409.371,2.4,2.4,0,0,0,1.075-1.335,5.64,5.64,0,0,1-1.557.593,2.375,2.375,0,0,0-1.779-.741,2.437,2.437,0,0,0-2.447,2.41,2.863,2.863,0,0,0,.074.556,6.969,6.969,0,0,1-5-2.484,2.3,2.3,0,0,0-.334,1.186,2.493,2.493,0,0,0,1.075,2,2.265,2.265,0,0,1-1.112-.3v.037a3.157,3.157,0,0,0,.148.853,2.417,2.417,0,0,0,1.779,1.483,3.652,3.652,0,0,1-.63.074,1.8,1.8,0,0,1-.445-.037,2.442,2.442,0,0,0,2.261,1.668,4.987,4.987,0,0,1-3,1.038,3.189,3.189,0,0,1-.593-.037,7,7,0,0,0,3.707,1.075,6.787,6.787,0,0,0,6.747-5.375,6.385,6.385,0,0,0,.148-1.446v-.3A3.935,3.935,0,0,0,284.2,33.712Z" transform="translate(382.646 1436.485)" fill="#fff"/>
  </g>
</svg>
